General

Format                           : MPEG-4
Format profile                   : Base Media
Codec ID                         : isom
File size                        : 119 MiB
Duration                         : 4mn 38s
Overall bit rate                 : 3 589 Kbps
Encoded date                     : UTC 2012-03-06 17:25:03
Tagged date                      : UTC 2012-03-06 17:25:03

Video
ID                               : 1
Format                           : AVC
Format/Info                      : Advanced Video Codec
Format profile                   : High@L3.0
Format settings, CABAC           : Yes
Format settings, ReFrames        : 2 frames
Codec ID                         : avc1
Codec ID/Info                    : Advanced Video Coding
Duration                         : 4mn 38s
Bit rate mode                    : Variable
Bit rate                         : 3 519 Kbps
Maximum bit rate                 : 11.5 Mbps
Width                            : 720 pixels
Height                           : 480 pixels
Display aspect ratio             : 4:3
Original display aspect ratio    : 4:3
Frame rate mode                  : Constant
Frame rate                       : 25.000 fps
Standard                         : NTSC
Color space                      : YUV
Chroma subsampling               : 4:2:0
Bit depth                        : 8 bits
Scan type                        : Progressive
Bits/(Pixel*Frame)               : 0.407
Stream size                      : 116 MiB (98%)


Audio
ID                               : 2
Format                           : AAC
Format/Info                      : Advanced Audio Codec
Format profile                   : LC
Codec ID                         : 40
Duration                         : 4mn 38s
Bit rate mode                    : Variable
Bit rate                         : 75.2 Kbps
Maximum bit rate                 : 88.0 Kbps
Channel(s)                       : 2 channels
Channel positions                : Front: L R
Sampling rate                    : 44.1 KHz
Compression mode                 : Lossy
Stream size                      : 2.49 MiB (2%)


